<svg xmlns="http://www.w3.org/2000/svg" width="512" height="512" viewBox="0 0 512 512">
  <g id="stats_wiki" transform="translate(-326 508)">
    <path id="Differenzmenge_5" data-name="Differenzmenge 5" d="M471,512H41A40.966,40.966,0,0,1,0,471V41A40.966,40.966,0,0,1,41,0H471a40.966,40.966,0,0,1,41,41V471a40.966,40.966,0,0,1-41,41ZM45,30A15.017,15.017,0,0,0,30,45V467a15.017,15.017,0,0,0,15,15H467a15.017,15.017,0,0,0,15-15V45a15.017,15.017,0,0,0-15-15Z" transform="translate(326 -508)" fill="#739a99"/>
    <g id="wikipedia-logo" transform="translate(401.845 -376.009)">
      <path id="Pfad_30" data-name="Pfad 30" d="M360.261,17.645l-71.977-.205c-.015,2.613-.022,5.745-.063,7.8,6.115.144,21.765,3.021,26.672,15.907L245.948,200.272c-3.378-7.9-35.44-79.121-39.1-88.28l33.342-69.161c6.884-10.522,20.049-17.307,32.776-17.8l-.036-7.233-69.245-.063c-.165,1.834,0,5.689-.25,7.6,19.534.529,26.517,4.9,21.835,16.568-7.726,17.553-23.926,50.811-27.094,56.874-9.908-20.71-16.208-36.65-27-59.039-4.653-10.375,5.619-14.414,16.484-14.716V17.748L107.468,17.5c.059,3.418-.077,5.333-.077,7.832,11.18.169,25.683,1.363,31.467,11.1,7.671,14.932,33.239,74.218,40.976,90.1-9.868,18.939-33.838,63.732-42.427,80.534-12.3-27.31-57.818-134.844-70.681-162.6C61.932,32.632,80.443,25.8,91.15,25.3l.07-7.894L0,17.4c.018,2.374.1,6.285.106,8.038C14.9,25.3,36.521,49.6,42.7,64.7c26.623,61.785,54.1,123.209,80.591,185.046a79.67,79.67,0,0,0,8.383.029c17.337-35.478,37.594-72.759,55.886-108.64L233.7,249.829c.018.015,7.652.059,7.693.025,29.262-66.875,73.1-169.5,87.449-201.893,5.834-13.845,15.6-22.29,31.4-22.765l.117-7.189Z" fill="#739a99"/>
    </g>
  </g>
</svg>
